<mxfile host="Electron" agent="Mozilla/5.0 (X11; Linux x86_64) AppleWebKit/537.36 (KHTML, like Gecko) draw.io/27.0.9 Chrome/134.0.6998.205 Electron/35.4.0 Safari/537.36" version="27.0.9">
  <diagram name="PÃ¡gina-1" id="ToBRTheretz20kivIdk1">
    <mxGraphModel dx="872" dy="540" grid="1" gridSize="10" guides="1" tooltips="1" connect="1" arrows="1" fold="1" page="1" pageScale="1" pageWidth="827" pageHeight="1169" math="0" shadow="0">
      <root>
        <mxCell id="0" />
        <mxCell id="1" parent="0" />
        <mxCell id="RG0HRJ_HVSyQCw6IGQ2K-32" style="edgeStyle=orthogonalEdgeStyle;rounded=0;orthogonalLoop=1;jettySize=auto;html=1;exitX=1;exitY=0.5;exitDx=0;exitDy=0;entryX=0;entryY=0.5;entryDx=0;entryDy=0;endArrow=none;startFill=0;" parent="1" source="RG0HRJ_HVSyQCw6IGQ2K-1" target="RG0HRJ_HVSyQCw6IGQ2K-31" edge="1">
          <mxGeometry relative="1" as="geometry" />
        </mxCell>
        <mxCell id="RG0HRJ_HVSyQCw6IGQ2K-34" value="N" style="edgeLabel;html=1;align=center;verticalAlign=middle;resizable=0;points=[];" parent="RG0HRJ_HVSyQCw6IGQ2K-32" vertex="1" connectable="0">
          <mxGeometry x="-0.0133" y="2" relative="1" as="geometry">
            <mxPoint as="offset" />
          </mxGeometry>
        </mxCell>
        <mxCell id="l7oc0T6wkBBDKhrkns4M-1" style="edgeStyle=orthogonalEdgeStyle;rounded=0;orthogonalLoop=1;jettySize=auto;html=1;exitX=0.75;exitY=0;exitDx=0;exitDy=0;entryX=0;entryY=0.5;entryDx=0;entryDy=0;endArrow=none;startFill=0;" edge="1" parent="1" source="RG0HRJ_HVSyQCw6IGQ2K-1" target="RG0HRJ_HVSyQCw6IGQ2K-9">
          <mxGeometry relative="1" as="geometry" />
        </mxCell>
        <mxCell id="l7oc0T6wkBBDKhrkns4M-2" style="edgeStyle=orthogonalEdgeStyle;rounded=0;orthogonalLoop=1;jettySize=auto;html=1;exitX=0.25;exitY=0;exitDx=0;exitDy=0;entryX=1;entryY=1;entryDx=0;entryDy=0;endArrow=none;startFill=0;" edge="1" parent="1" source="RG0HRJ_HVSyQCw6IGQ2K-1" target="RG0HRJ_HVSyQCw6IGQ2K-8">
          <mxGeometry relative="1" as="geometry" />
        </mxCell>
        <mxCell id="l7oc0T6wkBBDKhrkns4M-3" style="edgeStyle=orthogonalEdgeStyle;rounded=0;orthogonalLoop=1;jettySize=auto;html=1;exitX=0.75;exitY=0;exitDx=0;exitDy=0;entryX=1;entryY=0.5;entryDx=0;entryDy=0;endArrow=none;startFill=0;" edge="1" parent="1" source="RG0HRJ_HVSyQCw6IGQ2K-1" target="RG0HRJ_HVSyQCw6IGQ2K-10">
          <mxGeometry relative="1" as="geometry">
            <Array as="points">
              <mxPoint x="220" y="180" />
              <mxPoint x="220" y="120" />
            </Array>
          </mxGeometry>
        </mxCell>
        <mxCell id="l7oc0T6wkBBDKhrkns4M-5" style="edgeStyle=orthogonalEdgeStyle;rounded=0;orthogonalLoop=1;jettySize=auto;html=1;exitX=0.5;exitY=0;exitDx=0;exitDy=0;entryX=1;entryY=1;entryDx=0;entryDy=0;endArrow=none;startFill=0;" edge="1" parent="1" source="RG0HRJ_HVSyQCw6IGQ2K-1">
          <mxGeometry relative="1" as="geometry">
            <mxPoint x="239.74873734152925" y="94.14213562373095" as="targetPoint" />
          </mxGeometry>
        </mxCell>
        <mxCell id="l7oc0T6wkBBDKhrkns4M-6" style="edgeStyle=orthogonalEdgeStyle;rounded=0;orthogonalLoop=1;jettySize=auto;html=1;exitX=0.75;exitY=0;exitDx=0;exitDy=0;entryX=0;entryY=0.5;entryDx=0;entryDy=0;endArrow=none;startFill=0;" edge="1" parent="1" source="RG0HRJ_HVSyQCw6IGQ2K-1" target="RG0HRJ_HVSyQCw6IGQ2K-11">
          <mxGeometry relative="1" as="geometry" />
        </mxCell>
        <mxCell id="l7oc0T6wkBBDKhrkns4M-18" style="edgeStyle=orthogonalEdgeStyle;rounded=0;orthogonalLoop=1;jettySize=auto;html=1;exitX=0;exitY=0.75;exitDx=0;exitDy=0;entryX=1;entryY=1;entryDx=0;entryDy=0;endArrow=none;startFill=0;" edge="1" parent="1" source="RG0HRJ_HVSyQCw6IGQ2K-1" target="l7oc0T6wkBBDKhrkns4M-17">
          <mxGeometry relative="1" as="geometry" />
        </mxCell>
        <mxCell id="RG0HRJ_HVSyQCw6IGQ2K-1" value="ESTUDIANTE" style="rounded=0;whiteSpace=wrap;html=1;" parent="1" vertex="1">
          <mxGeometry x="180" y="180" width="100" height="30" as="geometry" />
        </mxCell>
        <mxCell id="RG0HRJ_HVSyQCw6IGQ2K-43" style="edgeStyle=orthogonalEdgeStyle;rounded=0;orthogonalLoop=1;jettySize=auto;html=1;exitX=1;exitY=0.5;exitDx=0;exitDy=0;endArrow=none;startFill=0;" parent="1" source="RG0HRJ_HVSyQCw6IGQ2K-2" target="RG0HRJ_HVSyQCw6IGQ2K-42" edge="1">
          <mxGeometry relative="1" as="geometry" />
        </mxCell>
        <mxCell id="RG0HRJ_HVSyQCw6IGQ2K-45" value="1" style="edgeLabel;html=1;align=center;verticalAlign=middle;resizable=0;points=[];" parent="RG0HRJ_HVSyQCw6IGQ2K-43" vertex="1" connectable="0">
          <mxGeometry x="0.2" y="-1" relative="1" as="geometry">
            <mxPoint as="offset" />
          </mxGeometry>
        </mxCell>
        <mxCell id="l7oc0T6wkBBDKhrkns4M-14" style="edgeStyle=orthogonalEdgeStyle;rounded=0;orthogonalLoop=1;jettySize=auto;html=1;exitX=0;exitY=0.25;exitDx=0;exitDy=0;entryX=0.5;entryY=1;entryDx=0;entryDy=0;endArrow=none;startFill=0;" edge="1" parent="1" source="RG0HRJ_HVSyQCw6IGQ2K-2" target="RG0HRJ_HVSyQCw6IGQ2K-15">
          <mxGeometry relative="1" as="geometry" />
        </mxCell>
        <mxCell id="l7oc0T6wkBBDKhrkns4M-16" style="edgeStyle=orthogonalEdgeStyle;rounded=0;orthogonalLoop=1;jettySize=auto;html=1;exitX=0.75;exitY=0;exitDx=0;exitDy=0;entryX=0;entryY=1;entryDx=0;entryDy=0;endArrow=none;startFill=0;" edge="1" parent="1" source="RG0HRJ_HVSyQCw6IGQ2K-2" target="RG0HRJ_HVSyQCw6IGQ2K-16">
          <mxGeometry relative="1" as="geometry" />
        </mxCell>
        <mxCell id="RG0HRJ_HVSyQCw6IGQ2K-2" value="PROFESOR" style="rounded=0;whiteSpace=wrap;html=1;" parent="1" vertex="1">
          <mxGeometry x="150" y="490" width="100" height="30" as="geometry" />
        </mxCell>
        <mxCell id="RG0HRJ_HVSyQCw6IGQ2K-53" style="edgeStyle=orthogonalEdgeStyle;rounded=0;orthogonalLoop=1;jettySize=auto;html=1;exitX=1;exitY=0.25;exitDx=0;exitDy=0;entryX=0;entryY=0.5;entryDx=0;entryDy=0;endArrow=none;startFill=0;" parent="1" source="RG0HRJ_HVSyQCw6IGQ2K-3" target="RG0HRJ_HVSyQCw6IGQ2K-52" edge="1">
          <mxGeometry relative="1" as="geometry" />
        </mxCell>
        <mxCell id="RG0HRJ_HVSyQCw6IGQ2K-55" value="1" style="edgeLabel;html=1;align=center;verticalAlign=middle;resizable=0;points=[];" parent="RG0HRJ_HVSyQCw6IGQ2K-53" vertex="1" connectable="0">
          <mxGeometry x="0.0171" relative="1" as="geometry">
            <mxPoint as="offset" />
          </mxGeometry>
        </mxCell>
        <mxCell id="RG0HRJ_HVSyQCw6IGQ2K-3" value="MATERIA" style="rounded=0;whiteSpace=wrap;html=1;" parent="1" vertex="1">
          <mxGeometry x="480" y="545" width="100" height="30" as="geometry" />
        </mxCell>
        <mxCell id="l7oc0T6wkBBDKhrkns4M-19" style="edgeStyle=orthogonalEdgeStyle;rounded=0;orthogonalLoop=1;jettySize=auto;html=1;exitX=0.25;exitY=1;exitDx=0;exitDy=0;entryX=1;entryY=0;entryDx=0;entryDy=0;startArrow=none;startFill=0;" edge="1" parent="1" source="RG0HRJ_HVSyQCw6IGQ2K-4" target="RG0HRJ_HVSyQCw6IGQ2K-21">
          <mxGeometry relative="1" as="geometry" />
        </mxCell>
        <mxCell id="RG0HRJ_HVSyQCw6IGQ2K-4" value="CLASE" style="rounded=0;whiteSpace=wrap;html=1;" parent="1" vertex="1">
          <mxGeometry x="515" y="370" width="100" height="30" as="geometry" />
        </mxCell>
        <mxCell id="l7oc0T6wkBBDKhrkns4M-12" style="edgeStyle=orthogonalEdgeStyle;rounded=0;orthogonalLoop=1;jettySize=auto;html=1;exitX=0;exitY=0;exitDx=0;exitDy=0;entryX=1;entryY=0.5;entryDx=0;entryDy=0;endArrow=none;startFill=0;" edge="1" parent="1" source="RG0HRJ_HVSyQCw6IGQ2K-6" target="RG0HRJ_HVSyQCw6IGQ2K-25">
          <mxGeometry relative="1" as="geometry" />
        </mxCell>
        <mxCell id="l7oc0T6wkBBDKhrkns4M-13" style="edgeStyle=orthogonalEdgeStyle;rounded=0;orthogonalLoop=1;jettySize=auto;html=1;exitX=0;exitY=0.5;exitDx=0;exitDy=0;entryX=1;entryY=0.5;entryDx=0;entryDy=0;endArrow=none;startFill=0;" edge="1" parent="1" source="RG0HRJ_HVSyQCw6IGQ2K-6" target="RG0HRJ_HVSyQCw6IGQ2K-26">
          <mxGeometry relative="1" as="geometry" />
        </mxCell>
        <mxCell id="RG0HRJ_HVSyQCw6IGQ2K-6" value="ASISTENCIA" style="shape=ext;margin=3;double=1;whiteSpace=wrap;html=1;align=center;" parent="1" vertex="1">
          <mxGeometry x="150" y="330" width="100" height="40" as="geometry" />
        </mxCell>
        <mxCell id="RG0HRJ_HVSyQCw6IGQ2K-37" style="edgeStyle=orthogonalEdgeStyle;rounded=0;orthogonalLoop=1;jettySize=auto;html=1;exitX=0.5;exitY=1;exitDx=0;exitDy=0;entryX=0.5;entryY=0;entryDx=0;entryDy=0;endArrow=none;startFill=0;" parent="1" source="RG0HRJ_HVSyQCw6IGQ2K-7" target="RG0HRJ_HVSyQCw6IGQ2K-36" edge="1">
          <mxGeometry relative="1" as="geometry" />
        </mxCell>
        <mxCell id="RG0HRJ_HVSyQCw6IGQ2K-39" value="1" style="edgeLabel;html=1;align=center;verticalAlign=middle;resizable=0;points=[];" parent="RG0HRJ_HVSyQCw6IGQ2K-37" vertex="1" connectable="0">
          <mxGeometry y="2" relative="1" as="geometry">
            <mxPoint as="offset" />
          </mxGeometry>
        </mxCell>
        <mxCell id="l7oc0T6wkBBDKhrkns4M-7" style="edgeStyle=orthogonalEdgeStyle;rounded=0;orthogonalLoop=1;jettySize=auto;html=1;exitX=0.25;exitY=0;exitDx=0;exitDy=0;entryX=1;entryY=1;entryDx=0;entryDy=0;endArrow=none;startFill=0;" edge="1" parent="1" source="RG0HRJ_HVSyQCw6IGQ2K-7" target="RG0HRJ_HVSyQCw6IGQ2K-28">
          <mxGeometry relative="1" as="geometry" />
        </mxCell>
        <mxCell id="l7oc0T6wkBBDKhrkns4M-9" style="edgeStyle=orthogonalEdgeStyle;rounded=0;orthogonalLoop=1;jettySize=auto;html=1;exitX=0.75;exitY=0;exitDx=0;exitDy=0;entryX=0;entryY=0.5;entryDx=0;entryDy=0;endArrow=none;startFill=0;" edge="1" parent="1" source="RG0HRJ_HVSyQCw6IGQ2K-7" target="RG0HRJ_HVSyQCw6IGQ2K-30">
          <mxGeometry relative="1" as="geometry">
            <Array as="points">
              <mxPoint x="600" y="180" />
              <mxPoint x="600" y="160" />
            </Array>
          </mxGeometry>
        </mxCell>
        <mxCell id="l7oc0T6wkBBDKhrkns4M-10" style="edgeStyle=orthogonalEdgeStyle;rounded=0;orthogonalLoop=1;jettySize=auto;html=1;exitX=0.5;exitY=0;exitDx=0;exitDy=0;entryX=1;entryY=1;entryDx=0;entryDy=0;endArrow=none;startFill=0;" edge="1" parent="1" source="RG0HRJ_HVSyQCw6IGQ2K-7" target="RG0HRJ_HVSyQCw6IGQ2K-27">
          <mxGeometry relative="1" as="geometry" />
        </mxCell>
        <mxCell id="l7oc0T6wkBBDKhrkns4M-11" style="edgeStyle=orthogonalEdgeStyle;rounded=0;orthogonalLoop=1;jettySize=auto;html=1;exitX=0.75;exitY=0;exitDx=0;exitDy=0;entryX=0;entryY=1;entryDx=0;entryDy=0;endArrow=none;startFill=0;" edge="1" parent="1" source="RG0HRJ_HVSyQCw6IGQ2K-7" target="RG0HRJ_HVSyQCw6IGQ2K-29">
          <mxGeometry relative="1" as="geometry" />
        </mxCell>
        <mxCell id="RG0HRJ_HVSyQCw6IGQ2K-7" value="GRUPO" style="rounded=0;whiteSpace=wrap;html=1;" parent="1" vertex="1">
          <mxGeometry x="500" y="180" width="100" height="30" as="geometry" />
        </mxCell>
        <mxCell id="RG0HRJ_HVSyQCw6IGQ2K-8" value="num_estudiante" style="ellipse;whiteSpace=wrap;html=1;fontStyle=4" parent="1" vertex="1">
          <mxGeometry x="90" y="125" width="100" height="30" as="geometry" />
        </mxCell>
        <mxCell id="RG0HRJ_HVSyQCw6IGQ2K-9" value="nombre" style="ellipse;whiteSpace=wrap;html=1;" parent="1" vertex="1">
          <mxGeometry x="270" y="125" width="70" height="40" as="geometry" />
        </mxCell>
        <mxCell id="RG0HRJ_HVSyQCw6IGQ2K-10" value="carrera" style="ellipse;whiteSpace=wrap;html=1;" parent="1" vertex="1">
          <mxGeometry x="150" y="80" width="70" height="40" as="geometry" />
        </mxCell>
        <mxCell id="RG0HRJ_HVSyQCw6IGQ2K-11" value="correo" style="ellipse;whiteSpace=wrap;html=1;" parent="1" vertex="1">
          <mxGeometry x="270" y="70" width="70" height="40" as="geometry" />
        </mxCell>
        <mxCell id="RG0HRJ_HVSyQCw6IGQ2K-15" value="nombre" style="ellipse;whiteSpace=wrap;html=1;" parent="1" vertex="1">
          <mxGeometry x="60" y="440" width="70" height="40" as="geometry" />
        </mxCell>
        <mxCell id="RG0HRJ_HVSyQCw6IGQ2K-16" value="correo" style="ellipse;whiteSpace=wrap;html=1;" parent="1" vertex="1">
          <mxGeometry x="220" y="440" width="70" height="40" as="geometry" />
        </mxCell>
        <mxCell id="RG0HRJ_HVSyQCw6IGQ2K-17" value="departamento" style="ellipse;whiteSpace=wrap;html=1;" parent="1" vertex="1">
          <mxGeometry x="140" y="400" width="90" height="40" as="geometry" />
        </mxCell>
        <mxCell id="l7oc0T6wkBBDKhrkns4M-23" style="edgeStyle=orthogonalEdgeStyle;rounded=0;orthogonalLoop=1;jettySize=auto;html=1;exitX=0.5;exitY=0;exitDx=0;exitDy=0;entryX=0.25;entryY=1;entryDx=0;entryDy=0;endArrow=none;startFill=0;" edge="1" parent="1" source="RG0HRJ_HVSyQCw6IGQ2K-18" target="RG0HRJ_HVSyQCw6IGQ2K-3">
          <mxGeometry relative="1" as="geometry" />
        </mxCell>
        <mxCell id="RG0HRJ_HVSyQCw6IGQ2K-18" value="nombre" style="ellipse;whiteSpace=wrap;html=1;" parent="1" vertex="1">
          <mxGeometry x="470" y="600" width="70" height="40" as="geometry" />
        </mxCell>
        <mxCell id="l7oc0T6wkBBDKhrkns4M-24" style="edgeStyle=orthogonalEdgeStyle;rounded=0;orthogonalLoop=1;jettySize=auto;html=1;exitX=0;exitY=0;exitDx=0;exitDy=0;entryX=0.75;entryY=1;entryDx=0;entryDy=0;endArrow=none;startFill=0;" edge="1" parent="1" source="RG0HRJ_HVSyQCw6IGQ2K-19" target="RG0HRJ_HVSyQCw6IGQ2K-3">
          <mxGeometry relative="1" as="geometry" />
        </mxCell>
        <mxCell id="RG0HRJ_HVSyQCw6IGQ2K-19" value="num_materia" style="ellipse;whiteSpace=wrap;html=1;fontStyle=4" parent="1" vertex="1">
          <mxGeometry x="570" y="590" width="70" height="40" as="geometry" />
        </mxCell>
        <mxCell id="RG0HRJ_HVSyQCw6IGQ2K-20" value="num_profe" style="ellipse;whiteSpace=wrap;html=1;fontStyle=4" parent="1" vertex="1">
          <mxGeometry x="270" y="400" width="70" height="40" as="geometry" />
        </mxCell>
        <mxCell id="RG0HRJ_HVSyQCw6IGQ2K-21" value="num_clase" style="ellipse;whiteSpace=wrap;html=1;fontStyle=4" parent="1" vertex="1">
          <mxGeometry x="490" y="420" width="70" height="40" as="geometry" />
        </mxCell>
        <mxCell id="l7oc0T6wkBBDKhrkns4M-20" style="edgeStyle=orthogonalEdgeStyle;rounded=0;orthogonalLoop=1;jettySize=auto;html=1;exitX=0;exitY=0;exitDx=0;exitDy=0;entryX=1;entryY=1;entryDx=0;entryDy=0;endArrow=none;startFill=0;" edge="1" parent="1" source="RG0HRJ_HVSyQCw6IGQ2K-22" target="RG0HRJ_HVSyQCw6IGQ2K-4">
          <mxGeometry relative="1" as="geometry" />
        </mxCell>
        <mxCell id="RG0HRJ_HVSyQCw6IGQ2K-22" value="horario" style="ellipse;whiteSpace=wrap;html=1;" parent="1" vertex="1">
          <mxGeometry x="620" y="410" width="70" height="40" as="geometry" />
        </mxCell>
        <mxCell id="RG0HRJ_HVSyQCw6IGQ2K-23" value="dias" style="ellipse;whiteSpace=wrap;html=1;" parent="1" vertex="1">
          <mxGeometry x="505" y="470" width="70" height="40" as="geometry" />
        </mxCell>
        <mxCell id="l7oc0T6wkBBDKhrkns4M-22" style="edgeStyle=orthogonalEdgeStyle;rounded=0;orthogonalLoop=1;jettySize=auto;html=1;exitX=0;exitY=0;exitDx=0;exitDy=0;entryX=0.75;entryY=1;entryDx=0;entryDy=0;endArrow=none;startFill=0;" edge="1" parent="1" source="RG0HRJ_HVSyQCw6IGQ2K-24" target="RG0HRJ_HVSyQCw6IGQ2K-4">
          <mxGeometry relative="1" as="geometry" />
        </mxCell>
        <mxCell id="RG0HRJ_HVSyQCw6IGQ2K-24" value="aula" style="ellipse;whiteSpace=wrap;html=1;" parent="1" vertex="1">
          <mxGeometry x="590" y="460" width="70" height="40" as="geometry" />
        </mxCell>
        <mxCell id="RG0HRJ_HVSyQCw6IGQ2K-25" value="fecha" style="ellipse;whiteSpace=wrap;html=1;" parent="1" vertex="1">
          <mxGeometry x="40" y="280" width="70" height="40" as="geometry" />
        </mxCell>
        <mxCell id="RG0HRJ_HVSyQCw6IGQ2K-26" value="estado" style="ellipse;whiteSpace=wrap;html=1;" parent="1" vertex="1">
          <mxGeometry x="50" y="330" width="70" height="40" as="geometry" />
        </mxCell>
        <mxCell id="RG0HRJ_HVSyQCw6IGQ2K-27" value="id_grupo" style="ellipse;whiteSpace=wrap;html=1;" parent="1" vertex="1">
          <mxGeometry x="475" y="60" width="70" height="40" as="geometry" />
        </mxCell>
        <mxCell id="RG0HRJ_HVSyQCw6IGQ2K-28" value="semestre" style="ellipse;whiteSpace=wrap;html=1;" parent="1" vertex="1">
          <mxGeometry x="460" y="120" width="70" height="40" as="geometry" />
        </mxCell>
        <mxCell id="RG0HRJ_HVSyQCw6IGQ2K-29" value="turno" style="ellipse;whiteSpace=wrap;html=1;" parent="1" vertex="1">
          <mxGeometry x="560" y="60" width="70" height="40" as="geometry" />
        </mxCell>
        <mxCell id="RG0HRJ_HVSyQCw6IGQ2K-30" value="carrera" style="ellipse;whiteSpace=wrap;html=1;" parent="1" vertex="1">
          <mxGeometry x="620" y="140" width="70" height="40" as="geometry" />
        </mxCell>
        <mxCell id="RG0HRJ_HVSyQCw6IGQ2K-33" style="edgeStyle=orthogonalEdgeStyle;rounded=0;orthogonalLoop=1;jettySize=auto;html=1;exitX=1;exitY=0.5;exitDx=0;exitDy=0;entryX=0;entryY=0.5;entryDx=0;entryDy=0;endArrow=none;startFill=0;" parent="1" source="RG0HRJ_HVSyQCw6IGQ2K-31" target="RG0HRJ_HVSyQCw6IGQ2K-7" edge="1">
          <mxGeometry relative="1" as="geometry" />
        </mxCell>
        <mxCell id="RG0HRJ_HVSyQCw6IGQ2K-35" value="1" style="edgeLabel;html=1;align=center;verticalAlign=middle;resizable=0;points=[];" parent="RG0HRJ_HVSyQCw6IGQ2K-33" vertex="1" connectable="0">
          <mxGeometry x="-0.0667" y="-2" relative="1" as="geometry">
            <mxPoint as="offset" />
          </mxGeometry>
        </mxCell>
        <mxCell id="RG0HRJ_HVSyQCw6IGQ2K-31" value="pertenece" style="rhombus;whiteSpace=wrap;html=1;" parent="1" vertex="1">
          <mxGeometry x="350" y="160" width="80" height="80" as="geometry" />
        </mxCell>
        <mxCell id="RG0HRJ_HVSyQCw6IGQ2K-38" style="edgeStyle=orthogonalEdgeStyle;rounded=0;orthogonalLoop=1;jettySize=auto;html=1;exitX=0.5;exitY=1;exitDx=0;exitDy=0;endArrow=none;startFill=0;" parent="1" source="RG0HRJ_HVSyQCw6IGQ2K-36" target="RG0HRJ_HVSyQCw6IGQ2K-4" edge="1">
          <mxGeometry relative="1" as="geometry" />
        </mxCell>
        <mxCell id="RG0HRJ_HVSyQCw6IGQ2K-41" value="N" style="edgeLabel;html=1;align=center;verticalAlign=middle;resizable=0;points=[];" parent="RG0HRJ_HVSyQCw6IGQ2K-38" vertex="1" connectable="0">
          <mxGeometry x="0.2444" y="-2" relative="1" as="geometry">
            <mxPoint as="offset" />
          </mxGeometry>
        </mxCell>
        <mxCell id="RG0HRJ_HVSyQCw6IGQ2K-36" value="tiene" style="rhombus;whiteSpace=wrap;html=1;" parent="1" vertex="1">
          <mxGeometry x="520" y="250" width="80" height="80" as="geometry" />
        </mxCell>
        <mxCell id="RG0HRJ_HVSyQCw6IGQ2K-44" style="edgeStyle=orthogonalEdgeStyle;rounded=0;orthogonalLoop=1;jettySize=auto;html=1;exitX=1;exitY=0.5;exitDx=0;exitDy=0;entryX=0;entryY=0.25;entryDx=0;entryDy=0;endArrow=none;startFill=0;" parent="1" source="RG0HRJ_HVSyQCw6IGQ2K-42" target="RG0HRJ_HVSyQCw6IGQ2K-4" edge="1">
          <mxGeometry relative="1" as="geometry" />
        </mxCell>
        <mxCell id="RG0HRJ_HVSyQCw6IGQ2K-46" value="N" style="edgeLabel;html=1;align=center;verticalAlign=middle;resizable=0;points=[];" parent="RG0HRJ_HVSyQCw6IGQ2K-44" vertex="1" connectable="0">
          <mxGeometry x="0.6627" relative="1" as="geometry">
            <mxPoint y="1" as="offset" />
          </mxGeometry>
        </mxCell>
        <mxCell id="RG0HRJ_HVSyQCw6IGQ2K-42" value="imparte" style="rhombus;whiteSpace=wrap;html=1;" parent="1" vertex="1">
          <mxGeometry x="340" y="450" width="80" height="80" as="geometry" />
        </mxCell>
        <mxCell id="RG0HRJ_HVSyQCw6IGQ2K-48" style="edgeStyle=orthogonalEdgeStyle;rounded=0;orthogonalLoop=1;jettySize=auto;html=1;exitX=0;exitY=0.5;exitDx=0;exitDy=0;entryX=1;entryY=0.5;entryDx=0;entryDy=0;endArrow=none;startFill=0;" parent="1" source="RG0HRJ_HVSyQCw6IGQ2K-47" target="RG0HRJ_HVSyQCw6IGQ2K-6" edge="1">
          <mxGeometry relative="1" as="geometry" />
        </mxCell>
        <mxCell id="RG0HRJ_HVSyQCw6IGQ2K-51" value="N" style="edgeLabel;html=1;align=center;verticalAlign=middle;resizable=0;points=[];" parent="RG0HRJ_HVSyQCw6IGQ2K-48" vertex="1" connectable="0">
          <mxGeometry x="-0.35" y="-2" relative="1" as="geometry">
            <mxPoint as="offset" />
          </mxGeometry>
        </mxCell>
        <mxCell id="RG0HRJ_HVSyQCw6IGQ2K-47" value="tiene" style="rhombus;whiteSpace=wrap;html=1;" parent="1" vertex="1">
          <mxGeometry x="350" y="280" width="80" height="80" as="geometry" />
        </mxCell>
        <mxCell id="RG0HRJ_HVSyQCw6IGQ2K-49" style="edgeStyle=orthogonalEdgeStyle;rounded=0;orthogonalLoop=1;jettySize=auto;html=1;exitX=1;exitY=0.5;exitDx=0;exitDy=0;entryX=0.13;entryY=-0.033;entryDx=0;entryDy=0;entryPerimeter=0;endArrow=none;startFill=0;" parent="1" source="RG0HRJ_HVSyQCw6IGQ2K-47" target="RG0HRJ_HVSyQCw6IGQ2K-4" edge="1">
          <mxGeometry relative="1" as="geometry" />
        </mxCell>
        <mxCell id="RG0HRJ_HVSyQCw6IGQ2K-50" value="1" style="edgeLabel;html=1;align=center;verticalAlign=middle;resizable=0;points=[];" parent="RG0HRJ_HVSyQCw6IGQ2K-49" vertex="1" connectable="0">
          <mxGeometry x="-0.0069" y="-2" relative="1" as="geometry">
            <mxPoint as="offset" />
          </mxGeometry>
        </mxCell>
        <mxCell id="RG0HRJ_HVSyQCw6IGQ2K-54" style="edgeStyle=orthogonalEdgeStyle;rounded=0;orthogonalLoop=1;jettySize=auto;html=1;exitX=0.5;exitY=0;exitDx=0;exitDy=0;entryX=1;entryY=0.25;entryDx=0;entryDy=0;endArrow=none;startFill=0;" parent="1" source="RG0HRJ_HVSyQCw6IGQ2K-52" target="RG0HRJ_HVSyQCw6IGQ2K-4" edge="1">
          <mxGeometry relative="1" as="geometry" />
        </mxCell>
        <mxCell id="RG0HRJ_HVSyQCw6IGQ2K-56" value="N" style="edgeLabel;html=1;align=center;verticalAlign=middle;resizable=0;points=[];" parent="RG0HRJ_HVSyQCw6IGQ2K-54" vertex="1" connectable="0">
          <mxGeometry x="0.5106" y="3" relative="1" as="geometry">
            <mxPoint x="1" as="offset" />
          </mxGeometry>
        </mxCell>
        <mxCell id="RG0HRJ_HVSyQCw6IGQ2K-52" value="corresponde a .." style="rhombus;whiteSpace=wrap;html=1;" parent="1" vertex="1">
          <mxGeometry x="650" y="495" width="120" height="80" as="geometry" />
        </mxCell>
        <mxCell id="RG0HRJ_HVSyQCw6IGQ2K-60" style="edgeStyle=orthogonalEdgeStyle;rounded=0;orthogonalLoop=1;jettySize=auto;html=1;exitX=0;exitY=1;exitDx=0;exitDy=0;entryX=0.25;entryY=0;entryDx=0;entryDy=0;endArrow=none;startFill=0;" parent="1" source="RG0HRJ_HVSyQCw6IGQ2K-57" target="RG0HRJ_HVSyQCw6IGQ2K-6" edge="1">
          <mxGeometry relative="1" as="geometry" />
        </mxCell>
        <mxCell id="RG0HRJ_HVSyQCw6IGQ2K-65" value="N" style="edgeLabel;html=1;align=center;verticalAlign=middle;resizable=0;points=[];" parent="RG0HRJ_HVSyQCw6IGQ2K-60" vertex="1" connectable="0">
          <mxGeometry x="-0.2" y="-1" relative="1" as="geometry">
            <mxPoint as="offset" />
          </mxGeometry>
        </mxCell>
        <mxCell id="RG0HRJ_HVSyQCw6IGQ2K-62" style="edgeStyle=orthogonalEdgeStyle;rounded=0;orthogonalLoop=1;jettySize=auto;html=1;exitX=1;exitY=0;exitDx=0;exitDy=0;entryX=0.75;entryY=1;entryDx=0;entryDy=0;" parent="1" source="RG0HRJ_HVSyQCw6IGQ2K-57" target="RG0HRJ_HVSyQCw6IGQ2K-1" edge="1">
          <mxGeometry relative="1" as="geometry" />
        </mxCell>
        <mxCell id="RG0HRJ_HVSyQCw6IGQ2K-64" value="1" style="edgeLabel;html=1;align=center;verticalAlign=middle;resizable=0;points=[];" parent="RG0HRJ_HVSyQCw6IGQ2K-62" vertex="1" connectable="0">
          <mxGeometry x="-0.4769" y="-2" relative="1" as="geometry">
            <mxPoint as="offset" />
          </mxGeometry>
        </mxCell>
        <mxCell id="RG0HRJ_HVSyQCw6IGQ2K-57" value="marca" style="rhombus;whiteSpace=wrap;html=1;" parent="1" vertex="1">
          <mxGeometry x="170" y="230" width="80" height="80" as="geometry" />
        </mxCell>
        <mxCell id="l7oc0T6wkBBDKhrkns4M-15" style="edgeStyle=orthogonalEdgeStyle;rounded=0;orthogonalLoop=1;jettySize=auto;html=1;exitX=0.25;exitY=0;exitDx=0;exitDy=0;entryX=0.222;entryY=1;entryDx=0;entryDy=0;entryPerimeter=0;endArrow=none;startFill=0;" edge="1" parent="1" source="RG0HRJ_HVSyQCw6IGQ2K-2" target="RG0HRJ_HVSyQCw6IGQ2K-17">
          <mxGeometry relative="1" as="geometry" />
        </mxCell>
        <mxCell id="l7oc0T6wkBBDKhrkns4M-17" value="matricula" style="ellipse;whiteSpace=wrap;html=1;" vertex="1" parent="1">
          <mxGeometry x="90" y="165" width="70" height="40" as="geometry" />
        </mxCell>
        <mxCell id="l7oc0T6wkBBDKhrkns4M-21" style="edgeStyle=orthogonalEdgeStyle;rounded=0;orthogonalLoop=1;jettySize=auto;html=1;exitX=1;exitY=0;exitDx=0;exitDy=0;entryX=0.59;entryY=1.1;entryDx=0;entryDy=0;entryPerimeter=0;endArrow=none;startFill=0;" edge="1" parent="1" source="RG0HRJ_HVSyQCw6IGQ2K-23" target="RG0HRJ_HVSyQCw6IGQ2K-4">
          <mxGeometry relative="1" as="geometry" />
        </mxCell>
      </root>
    </mxGraphModel>
  </diagram>
</mxfile>
